<mxfile host="Electron" agent="Mozilla/5.0 (Windows NT 10.0; Win64; x64) AppleWebKit/537.36 (KHTML, like Gecko) draw.io/28.0.6 Chrome/138.0.7204.100 Electron/37.2.3 Safari/537.36" version="28.0.6">
  <diagram name="Page-1" id="hKkj7bpg_wnrlVLwdddY">
    <mxGraphModel dx="1042" dy="1822" grid="1" gridSize="10" guides="1" tooltips="1" connect="1" arrows="1" fold="1" page="1" pageScale="1" pageWidth="850" pageHeight="1100" math="0" shadow="0">
      <root>
        <mxCell id="0" />
        <mxCell id="1" parent="0" />
        <mxCell id="oOulqH29mJeqpTnYo-j4-12" style="edgeStyle=orthogonalEdgeStyle;rounded=0;orthogonalLoop=1;jettySize=auto;html=1;entryX=0.5;entryY=0;entryDx=0;entryDy=0;" edge="1" parent="1" source="oOulqH29mJeqpTnYo-j4-1" target="oOulqH29mJeqpTnYo-j4-2">
          <mxGeometry relative="1" as="geometry" />
        </mxCell>
        <mxCell id="oOulqH29mJeqpTnYo-j4-1" value="start" style="strokeWidth=2;html=1;shape=mxgraph.flowchart.terminator;whiteSpace=wrap;" vertex="1" parent="1">
          <mxGeometry x="110" width="100" height="60" as="geometry" />
        </mxCell>
        <mxCell id="oOulqH29mJeqpTnYo-j4-13" style="edgeStyle=orthogonalEdgeStyle;rounded=0;orthogonalLoop=1;jettySize=auto;html=1;entryX=0.5;entryY=0;entryDx=0;entryDy=0;" edge="1" parent="1" source="oOulqH29mJeqpTnYo-j4-2" target="oOulqH29mJeqpTnYo-j4-3">
          <mxGeometry relative="1" as="geometry" />
        </mxCell>
        <mxCell id="oOulqH29mJeqpTnYo-j4-2" value="Declarations&lt;div&gt;&amp;nbsp; &amp;nbsp;num numberSum = 0&lt;/div&gt;&lt;div&gt;&amp;nbsp; &amp;nbsp;num numberValue&lt;/div&gt;&lt;div&gt;&amp;nbsp; &amp;nbsp;&lt;/div&gt;" style="rounded=0;whiteSpace=wrap;html=1;align=left;" vertex="1" parent="1">
          <mxGeometry x="90" y="80" width="140" height="70" as="geometry" />
        </mxCell>
        <mxCell id="oOulqH29mJeqpTnYo-j4-14" style="edgeStyle=orthogonalEdgeStyle;rounded=0;orthogonalLoop=1;jettySize=auto;html=1;entryX=0.5;entryY=0;entryDx=0;entryDy=0;" edge="1" parent="1" source="oOulqH29mJeqpTnYo-j4-3" target="oOulqH29mJeqpTnYo-j4-4">
          <mxGeometry relative="1" as="geometry" />
        </mxCell>
        <mxCell id="oOulqH29mJeqpTnYo-j4-3" value="output &quot;Please enter a number...&quot;" style="shape=parallelogram;perimeter=parallelogramPerimeter;whiteSpace=wrap;html=1;fixedSize=1;" vertex="1" parent="1">
          <mxGeometry x="50" y="190" width="220" height="30" as="geometry" />
        </mxCell>
        <mxCell id="oOulqH29mJeqpTnYo-j4-15" style="edgeStyle=orthogonalEdgeStyle;rounded=0;orthogonalLoop=1;jettySize=auto;html=1;entryX=0.5;entryY=0;entryDx=0;entryDy=0;" edge="1" parent="1" source="oOulqH29mJeqpTnYo-j4-4" target="oOulqH29mJeqpTnYo-j4-5">
          <mxGeometry relative="1" as="geometry" />
        </mxCell>
        <mxCell id="oOulqH29mJeqpTnYo-j4-4" value="input numberValue" style="shape=parallelogram;perimeter=parallelogramPerimeter;whiteSpace=wrap;html=1;fixedSize=1;" vertex="1" parent="1">
          <mxGeometry x="90" y="250" width="140" height="30" as="geometry" />
        </mxCell>
        <mxCell id="oOulqH29mJeqpTnYo-j4-16" style="edgeStyle=orthogonalEdgeStyle;rounded=0;orthogonalLoop=1;jettySize=auto;html=1;entryX=0.5;entryY=0;entryDx=0;entryDy=0;" edge="1" parent="1" source="oOulqH29mJeqpTnYo-j4-5" target="oOulqH29mJeqpTnYo-j4-6">
          <mxGeometry relative="1" as="geometry" />
        </mxCell>
        <mxCell id="oOulqH29mJeqpTnYo-j4-18" value="" style="edgeStyle=orthogonalEdgeStyle;rounded=0;orthogonalLoop=1;jettySize=auto;html=1;" edge="1" parent="1" source="oOulqH29mJeqpTnYo-j4-5" target="oOulqH29mJeqpTnYo-j4-11">
          <mxGeometry relative="1" as="geometry">
            <Array as="points">
              <mxPoint x="240" y="380" />
              <mxPoint x="240" y="380" />
            </Array>
          </mxGeometry>
        </mxCell>
        <mxCell id="oOulqH29mJeqpTnYo-j4-5" value="numberValue&amp;nbsp;&lt;div&gt;&amp;lt;&amp;gt; 0?&lt;/div&gt;" style="rhombus;whiteSpace=wrap;html=1;" vertex="1" parent="1">
          <mxGeometry x="110" y="330" width="100" height="100" as="geometry" />
        </mxCell>
        <mxCell id="oOulqH29mJeqpTnYo-j4-6" value="output numberSum" style="shape=parallelogram;perimeter=parallelogramPerimeter;whiteSpace=wrap;html=1;fixedSize=1;" vertex="1" parent="1">
          <mxGeometry x="90" y="460" width="140" height="30" as="geometry" />
        </mxCell>
        <mxCell id="oOulqH29mJeqpTnYo-j4-7" value="stop" style="strokeWidth=2;html=1;shape=mxgraph.flowchart.terminator;whiteSpace=wrap;" vertex="1" parent="1">
          <mxGeometry x="110" y="520" width="100" height="60" as="geometry" />
        </mxCell>
        <mxCell id="oOulqH29mJeqpTnYo-j4-21" style="edgeStyle=orthogonalEdgeStyle;rounded=0;orthogonalLoop=1;jettySize=auto;html=1;entryX=0.5;entryY=0;entryDx=0;entryDy=0;" edge="1" parent="1" source="oOulqH29mJeqpTnYo-j4-9" target="oOulqH29mJeqpTnYo-j4-10">
          <mxGeometry relative="1" as="geometry" />
        </mxCell>
        <mxCell id="oOulqH29mJeqpTnYo-j4-9" value="output &quot;Please enter a number...&quot;" style="shape=parallelogram;perimeter=parallelogramPerimeter;whiteSpace=wrap;html=1;fixedSize=1;" vertex="1" parent="1">
          <mxGeometry x="295" y="430" width="220" height="30" as="geometry" />
        </mxCell>
        <mxCell id="oOulqH29mJeqpTnYo-j4-10" value="input numberValue" style="shape=parallelogram;perimeter=parallelogramPerimeter;whiteSpace=wrap;html=1;fixedSize=1;" vertex="1" parent="1">
          <mxGeometry x="335" y="490" width="140" height="30" as="geometry" />
        </mxCell>
        <mxCell id="oOulqH29mJeqpTnYo-j4-19" style="edgeStyle=orthogonalEdgeStyle;rounded=0;orthogonalLoop=1;jettySize=auto;html=1;entryX=0.5;entryY=0;entryDx=0;entryDy=0;" edge="1" parent="1" source="oOulqH29mJeqpTnYo-j4-11" target="oOulqH29mJeqpTnYo-j4-9">
          <mxGeometry relative="1" as="geometry" />
        </mxCell>
        <mxCell id="oOulqH29mJeqpTnYo-j4-11" value="&#xa;&lt;span style=&quot;color: rgb(0, 0, 0); font-family: Helvetica; font-size: 12px; font-style: normal; font-variant-ligatures: normal; font-variant-caps: normal; font-weight: 400; letter-spacing: normal; orphans: 2; text-align: center; text-indent: 0px; text-transform: none; widows: 2; word-spacing: 0px; -webkit-text-stroke-width: 0px; white-space: normal; background-color: rgb(236, 236, 236); text-decoration-thickness: initial; text-decoration-style: initial; text-decoration-color: initial; display: inline !important; float: none;&quot;&gt;numberSum = numberSum + numberValue&lt;/span&gt;&#xa;&#xa;" style="rounded=0;whiteSpace=wrap;html=1;" vertex="1" parent="1">
          <mxGeometry x="270" y="360" width="270" height="40" as="geometry" />
        </mxCell>
        <mxCell id="oOulqH29mJeqpTnYo-j4-17" style="edgeStyle=orthogonalEdgeStyle;rounded=0;orthogonalLoop=1;jettySize=auto;html=1;entryX=0.5;entryY=0;entryDx=0;entryDy=0;entryPerimeter=0;" edge="1" parent="1" source="oOulqH29mJeqpTnYo-j4-6" target="oOulqH29mJeqpTnYo-j4-7">
          <mxGeometry relative="1" as="geometry" />
        </mxCell>
        <mxCell id="oOulqH29mJeqpTnYo-j4-22" value="" style="edgeStyle=elbowEdgeStyle;elbow=horizontal;endArrow=classic;html=1;curved=0;rounded=0;endSize=8;startSize=8;exitX=1;exitY=0.5;exitDx=0;exitDy=0;" edge="1" parent="1" source="oOulqH29mJeqpTnYo-j4-10">
          <mxGeometry width="50" height="50" relative="1" as="geometry">
            <mxPoint x="630" y="500" as="sourcePoint" />
            <mxPoint x="160" y="300" as="targetPoint" />
            <Array as="points">
              <mxPoint x="580" y="410" />
            </Array>
          </mxGeometry>
        </mxCell>
        <mxCell id="oOulqH29mJeqpTnYo-j4-23" value="YES" style="text;html=1;align=center;verticalAlign=middle;resizable=0;points=[];autosize=1;strokeColor=none;fillColor=none;fontStyle=1" vertex="1" parent="1">
          <mxGeometry x="210" y="350" width="50" height="30" as="geometry" />
        </mxCell>
        <mxCell id="oOulqH29mJeqpTnYo-j4-24" value="NO" style="text;html=1;align=center;verticalAlign=middle;resizable=0;points=[];autosize=1;strokeColor=none;fillColor=none;fontStyle=1" vertex="1" parent="1">
          <mxGeometry x="160" y="420" width="40" height="30" as="geometry" />
        </mxCell>
      </root>
    </mxGraphModel>
  </diagram>
</mxfile>
